<?xml version="1.0" encoding="UTF-8"?>
<svg version="1.1" xmlns="http://www.w3.org/2000/svg" width="300" height="300">
<path d="M0 0 C99 0 198 0 300 0 C300 99 300 198 300 300 C201 300 102 300 0 300 C0 201 0 102 0 0 Z " fill="#B66753" transform="translate(0,0)"/>
<path d="M0 0 C0.495 0.99 0.495 0.99 1 2 C0.525625 3.093125 0.05125 4.18625 -0.4375 5.3125 C-3.32596774 12.68076724 -3.09575521 20.92434045 -0.375 28.3125 C4.43274639 38.6124289 10.73023491 43.52315582 20.875 48.375 C31.08400108 50.41680022 39.24630669 48.85925332 48.1875 43.75 C55.33577801 38.98448132 58.99823341 31.86911709 62 24 C62.99 24.99 62.99 24.99 64 26 C68.29 21.71 72.58 17.42 77 13 C78.04645703 16.13937108 77.95225199 17.92848502 77.75 21.1875 C77.70324456 27.07868525 79.12312138 30.60620423 83 35 C86.77706687 38.68494329 89.81970182 39.29579858 94.9375 39.5 C100.54480562 39.28486822 103.60568177 38.49751859 108 35 C109.84790376 32.74681187 111.40065826 30.44605207 113 28 C113.33 28 113.66 28 114 28 C113.88777717 34.28447846 112.51428446 37.65549212 108.18359375 42.23828125 C105.06783626 44.7520677 101.80872415 46.03875304 98.0390625 47.30859375 C96.03052573 47.8219445 96.03052573 47.8219445 95 49 C91.28147216 49.46309656 87.56112745 49.83741524 83.83203125 50.20703125 C79.49912731 51.10364644 77.45458683 52.35130434 74 55 C74.71285156 55.52207031 75.42570313 56.04414063 76.16015625 56.58203125 C85.41720163 63.69612669 91.69332365 71.71839832 95 83 C95 84.65 95 86.3 95 88 C102.26 88 109.52 88 117 88 C110.2502522 95.87470577 110.2502522 95.87470577 106.52677917 99.58674622 C105.26707306 100.84634659 105.26707306 100.84634659 103.98191833 102.13139343 C103.07933792 103.02880753 102.17675751 103.92622162 101.24682617 104.85083008 C100.27198298 105.82375057 99.29736982 106.7969016 98.32296753 107.77026367 C96.23734285 109.85274569 94.15017976 111.93366864 92.06178856 114.01337624 C88.76077833 117.30079799 85.4636451 120.59209005 82.16706848 123.88395691 C75.17684664 130.86311472 68.18238148 137.83801281 61.1875 144.8125 C53.6176649 152.36030403 46.04857388 159.90884569 38.48432904 167.4622528 C35.20524302 170.73635101 31.9237332 174.00799466 28.64035928 177.27779257 C26.60437784 179.30633453 24.57045252 181.33692833 22.5370903 183.3680954 C21.13989917 184.76251151 19.74019919 186.15441235 18.34043884 187.54624939 C17.51473389 188.37188385 16.68902893 189.19751831 15.83830261 190.048172 C15.11695727 190.76729672 14.39561193 191.48642145 13.65240765 192.22733784 C11.92651402 193.91135097 11.92651402 193.91135097 11 196 C31.47985847 195.96282054 51.95953089 195.90294092 72.43924046 195.81609726 C81.94851016 195.7763017 91.45769704 195.74391183 100.96704102 195.72900391 C109.25618015 195.71599007 117.54513709 195.68903228 125.83417362 195.64538693 C130.22248077 195.62276606 134.61056316 195.60708969 138.99893379 195.60811615 C143.13177044 195.6088624 147.26411011 195.59092615 151.39681816 195.55883217 C152.91127124 195.55033284 154.42578006 195.5485835 155.94024658 195.55419731 C166.68816273 195.75786219 166.68816273 195.75786219 176 191 C177.96183059 187.91619214 177.96183059 187.91619214 179 185 C179.33 185 179.66 185 180 185 C180 189.95 180 194.9 180 200 C81 200 -18 200 -120 200 C-120 79 -120 79 -87.5625 38.9375 C-57.17297156 14 -57.17297156 14 -54 14 C-53.97421875 14.85722656 -53.9484375 15.71445313 -53.921875 16.59765625 C-53.5787685 23.51437146 -53.25781467 28.4411864 -49 34 C-43.66405607 38.82775879 -40.2013724 39.41629179 -33.1171875 39.33984375 C-27.72023076 38.75145373 -24.18953431 36.51509189 -20.66015625 32.4609375 C-18.38518531 29.0444331 -17.92442596 26.39683166 -17.9375 22.33203125 C-17.34163037 15.55129588 -13.27634485 12.25911003 -8.4375 7.875 C-7.22803711 6.72644531 -7.22803711 6.72644531 -5.99414062 5.5546875 C-4.01500866 3.6809531 -2.0181208 1.83152357 0 0 Z " fill="#8B4A39" transform="translate(120,100)"/>
<path d="M0 0 C8.8894919 3.54573793 18.64493722 2.84139977 27.6875 0 C28.491875 -0.37125 29.29625 -0.7425 30.125 -1.125 C37.79694488 -3.7446885 44.70342195 -1.82346147 51.859375 1.4609375 C59.7826511 5.7727756 64.89207491 11.83129964 68.6875 20 C70.10885877 24.84475335 69.94525553 29.92655629 70 34.9375 C70.04350586 36.25911133 70.04350586 36.25911133 70.08789062 37.60742188 C70.142676 43.23345889 69.66344722 46.69004752 65.6875 51 C60.20427276 54.78278394 56.30783768 55.58055908 49.72631836 55.50170898 C48.85711258 55.50711197 47.9879068 55.51251495 47.09236145 55.51808167 C44.23700255 55.53052572 41.38266042 55.51410821 38.52734375 55.49609375 C36.53389941 55.49624882 34.54045476 55.4977392 32.54701233 55.50050354 C28.37682709 55.50188555 24.20698662 55.48936138 20.03686523 55.46655273 C14.69814427 55.43815041 9.35999505 55.44091317 4.02123165 55.45364285 C-0.09237023 55.46060512 -4.20584051 55.45280474 -8.31942558 55.44038582 C-10.28775973 55.43587797 -12.25610804 55.43552868 -14.22444344 55.43945122 C-16.97682689 55.44236927 -19.72842839 55.42582868 -22.48071289 55.40405273 C-23.69420914 55.41080521 -23.69420914 55.41080521 -24.93222046 55.41769409 C-29.78556113 55.35405868 -33.09779681 54.65786394 -37.3125 52 C-42.51616848 46.23377277 -42.54830548 42.42799845 -42.625 34.9375 C-42.65400391 34.02033203 -42.68300781 33.10316406 -42.71289062 32.15820312 C-42.80381074 22.28987397 -39.11214954 14.14641659 -32.3125 7 C-22.63932719 -0.93236063 -12.02855504 -4.91282553 0 0 Z " fill="#F0F0F0" transform="translate(136.3125,161)"/>
<path d="M0 0 C6.69609058 4.76771113 11.5894271 11.72693659 13.9375 19.625 C15.18288401 30.33530245 13.33891913 39.40837311 6.97265625 48.27734375 C1.20207493 55.09474254 -6.83754559 59.54607072 -15.703125 60.6953125 C-25.91781879 61.08818534 -33.8674444 57.8231431 -41.70703125 51.37109375 C-48.25659786 44.77143485 -52.01170767 36.27864186 -52.125 27 C-52.01383248 20.88578646 -50.92488016 16.5149516 -47.75 11.3125 C-47.32589844 10.61382812 -46.90179688 9.91515625 -46.46484375 9.1953125 C-35.65625305 -6.76165985 -15.99786925 -9.85103694 0 0 Z " fill="#F1F0F0" transform="translate(168.75,89.6875)"/>
<path d="M0 0 C99 0 198 0 300 0 C300 5.94 300 11.88 300 18 C299.67 18 299.34 18 299 18 C298.6596875 16.39125 298.6596875 16.39125 298.3125 14.75 C296.65538374 10.0153821 294.40249925 8.20124963 290 6 C288.45701065 5.90222802 286.90985054 5.86720906 285.36377239 5.86298561 C283.88894816 5.8553738 283.88894816 5.8553738 282.3843295 5.84760821 C281.29631836 5.84711045 280.20830722 5.84661269 279.08732605 5.84609985 C277.93758326 5.8417176 276.78784048 5.83733535 275.603257 5.8328203 C272.40218069 5.82173945 269.201132 5.81520283 266.00004089 5.81063914 C262.55140368 5.80468891 259.10278457 5.7930777 255.65415955 5.78234863 C247.32120156 5.75781246 238.98823758 5.74319629 230.65525457 5.73028857 C228.30261022 5.72657771 225.94996646 5.7226044 223.5973227 5.7185359 C208.99491955 5.69330195 194.39251548 5.67124385 179.79009533 5.65880775 C176.40685714 5.65587795 173.02361898 5.6529163 169.64038086 5.64990234 C168.37901464 5.64878327 168.37901464 5.64878327 167.09216628 5.64764158 C153.46416973 5.63498285 139.8363035 5.60175347 126.20836791 5.56010051 C112.2243761 5.51770878 98.24045107 5.49411598 84.25639516 5.48888719 C76.40176449 5.48547007 68.54733752 5.47367957 60.69277 5.44078445 C54.00464929 5.41282069 47.31677401 5.40176834 40.62859937 5.41297992 C37.21519573 5.41817603 33.80230638 5.41521942 30.38897705 5.39051437 C26.69009222 5.36797372 22.99251439 5.37604926 19.29362488 5.39199829 C17.67164642 5.37117516 17.67164642 5.37117516 16.01690072 5.34993136 C10.03746343 5.37465555 10.03746343 5.37465555 4.98164845 8.35050011 C4.32770446 9.22483507 3.67376047 10.09917004 3 11 C2.01 11.99 1.02 12.98 0 14 C0 9.38 0 4.76 0 0 Z " fill="#D09F93" transform="translate(0,0)"/>
<path d="M0 0 C0.66 1.32 1.32 2.64 2 4 C3.62652316 5.70586575 5.29006566 7.3777546 7 9 C7.33 9.33 7.66 9.66 8 10 C10.93688529 10.12620313 13.85119171 10.18627777 16.78955078 10.20532227 C17.72750897 10.2152077 18.66546717 10.22509314 19.63184834 10.23527813 C22.81964313 10.26735876 26.00745047 10.2919732 29.1953125 10.31640625 C31.49528762 10.33734418 33.79526011 10.35857184 36.0952301 10.38006592 C43.10443249 10.44330135 50.1136886 10.49675895 57.12298918 10.54781771 C59.11614526 10.56243506 61.10929831 10.57746409 63.10245132 10.59249496 C84.55916195 10.75430225 106.01600299 10.87938104 127.47304821 10.98722458 C130.04304031 11.0002176 132.61303102 11.01346344 135.18302155 11.02676392 C156.96326623 11.13907472 178.74343698 11.22986111 200.52393341 11.27481747 C202.32509871 11.27856287 204.12626397 11.28232445 205.9274292 11.28610229 C207.26051038 11.28889237 207.26051038 11.28889237 208.6205225 11.29173881 C214.9024373 11.30589905 221.18426216 11.3303898 227.46612549 11.35916138 C235.18042269 11.39430932 242.89459948 11.41518666 250.60897893 11.41792715 C254.58232593 11.41970284 258.5553856 11.42794401 262.52865791 11.45333099 C266.19223868 11.47650548 269.85535595 11.48093453 273.51899123 11.4706887 C275.47760731 11.46999481 277.4361997 11.48904135 279.39471626 11.50879765 C286.11668298 11.46891815 290.62183716 11.20502242 296 7 C297.96183059 3.91619214 297.96183059 3.91619214 299 1 C299.33 1 299.66 1 300 1 C300 5.95 300 10.9 300 16 C201 16 102 16 0 16 C0 10.72 0 5.44 0 0 Z " fill="#7C4B40" transform="translate(0,284)"/>
<path d="M0 0 C2.16227385 -0.0171609 4.32299711 -0.0610394 6.48486328 -0.10522461 C7.86896666 -0.11535674 9.253083 -0.12387122 10.63720703 -0.13061523 C11.89178711 -0.14519775 13.14636719 -0.15978027 14.43896484 -0.17480469 C19.6431882 0.52498086 23.44333685 3.21093921 26.68408203 7.29516602 C30.47413499 12.34856996 31.29750262 15.85938451 31.30908203 22.17016602 C31.33357422 22.8649707 31.35806641 23.55977539 31.38330078 24.27563477 C31.41245674 29.43624006 30.18920956 32.33818943 26.93408203 36.29516602 C24.37684974 37.57378216 22.56671101 37.40853211 19.70751953 37.39282227 C18.67626953 37.38959961 17.64501953 37.38637695 16.58251953 37.38305664 C15.50228516 37.37467773 14.42205078 37.36629883 13.30908203 37.35766602 C11.67712891 37.35089844 11.67712891 37.35089844 10.01220703 37.34399414 C7.31944414 37.33218378 4.62679015 37.3157138 1.93408203 37.29516602 C1.69947266 36.48700439 1.46486328 35.67884277 1.22314453 34.84619141 C-2.68068498 21.71889315 -8.45242585 13.62447659 -20.06591797 6.29516602 C-13.54420848 -0.39816741 -8.95618895 0.04952079 0 0 Z " fill="#F1F0F0" transform="translate(213.06591796875,149.704833984375)"/>
<path d="M0 0 C1.9950268 -0.0170906 3.98976597 -0.06096553 5.984375 -0.10522461 C13.41268069 -0.15409504 18.65807614 0.10120745 24.8984375 4.29516602 C25.3934375 5.28516602 25.3934375 5.28516602 25.8984375 6.29516602 C25.3415625 6.60067383 24.7846875 6.90618164 24.2109375 7.22094727 C13.6677267 13.54331185 7.35721527 23.62250004 4.35522461 35.43212891 C4.20448486 36.04693115 4.05374512 36.6617334 3.8984375 37.29516602 C0.16953495 37.41165222 -3.55889764 37.48251178 -7.2890625 37.54516602 C-8.87170898 37.59543945 -8.87170898 37.59543945 -10.48632812 37.64672852 C-18.31913821 37.74556524 -18.31913821 37.74556524 -22.27734375 35.46704102 C-26.89599939 29.96817049 -25.6900215 21.08919265 -25.1015625 14.29516602 C-21.00232229 2.2801516 -11.37191937 0.06775584 0 0 Z " fill="#F2F1F1" transform="translate(81.1015625,149.704833984375)"/>
<path d="M0 0 C5.06952728 2.81215287 8.68781392 6.6810105 10.6953125 12.1484375 C11.54109217 17.3503567 11.52567842 22.26810857 9.0703125 27.0234375 C5.86894384 31.23576468 2.83342011 34.43573496 -2.3046875 36.1484375 C-8.31891924 36.85232536 -13.7023502 37.19889198 -18.8046875 33.5859375 C-23.08685609 29.74982813 -25.80980537 26.29683046 -26.71484375 20.5390625 C-27.02331837 14.8125081 -26.3404946 10.53713093 -22.90625 5.875 C-16.66228277 -0.85630126 -8.85861154 -3.27318189 0 0 Z " fill="#F1F1F1" transform="translate(223.3046875,103.8515625)"/>
<path d="M0 0 C6.05495334 3.3768009 9.15396239 7.19343385 11.25 13.8125 C12.22172631 19.73896266 11.36476945 24.11713864 7.84765625 29.015625 C4.19838212 33.11994309 0.77645903 35.43734905 -4.72265625 36.25390625 C-9.46979123 36.43626212 -12.86134351 36.23259216 -17.1875 34.1875 C-21.53044514 30.16233133 -25.32665538 26.55607596 -26.0234375 20.39453125 C-26.23829682 14.53548294 -25.87887933 10.34377909 -22.359375 5.5390625 C-15.79889396 -1.49912347 -9.04558669 -2.86443578 0 0 Z " fill="#F1F0F0" transform="translate(91.75,104.1875)"/>
<path d="M0 0 C2.21654627 1.02911077 4.10869177 2.08234225 6.0625 3.5625 C10.15858796 6.60153301 14.55537846 6.17381619 19.42773438 6.20874023 C20.28832458 6.21852402 21.14891479 6.2283078 22.0355835 6.23838806 C24.88829 6.26833707 27.74094939 6.28973217 30.59375 6.30859375 C31.57019974 6.31516558 32.54664948 6.3217374 33.5526886 6.32850838 C38.72651724 6.3611079 43.90032532 6.38555124 49.07421875 6.4050293 C53.34405778 6.42280271 57.61323146 6.45755851 61.8828125 6.50756836 C67.04756264 6.56798809 72.21169857 6.59853571 77.37678528 6.60820198 C79.33827357 6.61672485 81.29974687 6.63546405 83.2610321 6.6649456 C98.54957483 6.88754955 98.54957483 6.88754955 112 0 C111.15630537 3.98837462 110.58581409 6.42960207 107.625 9.3125 C106.75875 9.869375 105.8925 10.42625 105 11 C104.46365936 11.35913986 103.92731873 11.71827972 103.37472534 12.08830261 C99.77744812 13.46935843 96.1798037 13.28617162 92.37939453 13.2746582 C91.51062683 13.27976913 90.64185913 13.28488007 89.74676514 13.29014587 C86.87537747 13.30404362 84.00422981 13.30308481 81.1328125 13.30078125 C79.13508007 13.30466838 77.13734846 13.30900308 75.13961792 13.31376648 C70.95161257 13.3212293 66.76369151 13.32093717 62.57568359 13.31567383 C57.21337748 13.30988234 51.85141712 13.32680222 46.48916817 13.3500185 C42.36272164 13.36476394 38.23635819 13.36562637 34.10988998 13.36250877 C32.13317048 13.36302168 30.15644629 13.36825372 28.17975235 13.37832069 C25.41273927 13.39068192 22.64639719 13.38389501 19.87939453 13.37231445 C18.65882858 13.38378006 18.65882858 13.38378006 17.41360474 13.39547729 C12.53825378 13.3504656 9.2396848 12.66075133 5 10 C1.89941892 6.81561943 0.50569737 4.42485195 0 0 Z " fill="#5B3329" transform="translate(94,209)"/>
<path d="M0 0 C0.66 1.32 1.32 2.64 2 4 C5.38523865 7.74157956 8.18832821 10.68486587 13.33504105 11.26171303 C14.20152645 11.26724379 15.06801186 11.27277454 15.96075439 11.2784729 C16.95912323 11.28963638 17.95749207 11.30079987 18.9861145 11.31230164 C20.07512054 11.31446182 21.16412659 11.31662201 22.28613281 11.31884766 C24.01339096 11.33391609 24.01339096 11.33391609 25.77554321 11.34928894 C29.58473203 11.3801996 33.3938503 11.39717822 37.203125 11.4140625 C39.84300344 11.43276778 42.48287587 11.4523407 45.1227417 11.4727478 C51.36286766 11.51952148 57.60301078 11.55627237 63.84322238 11.58942068 C70.94843571 11.62765207 78.05355758 11.67705955 85.15869379 11.72740483 C99.77239211 11.83070364 114.38615596 11.91997071 129 12 C127.82151318 13.96993637 127.82151318 13.96993637 126 16 C123.66306782 16.49219131 123.66306782 16.49219131 120.85578918 16.48101807 C119.79148178 16.48651672 118.72717438 16.49201538 117.63061523 16.49768066 C116.46320801 16.48329956 115.29580078 16.46891846 114.09301758 16.45410156 C112.86362961 16.45468567 111.63424164 16.45526978 110.36759949 16.45587158 C106.99560064 16.45356039 103.62457846 16.43348611 100.25275254 16.40557575 C96.72937786 16.38058924 93.2059905 16.37822229 89.68254089 16.37347412 C83.01014685 16.36103618 76.3380146 16.32820376 69.6657359 16.28807616 C62.06971727 16.24338371 54.4736862 16.22137782 46.87756884 16.20129442 C31.25155674 16.15947161 15.62582239 16.0882993 0 16 C0 10.72 0 5.44 0 0 Z " fill="#653E35" transform="translate(0,284)"/>
<path d="M0 0 C-0.25378826 3.72222776 -0.50444832 5.50444832 -3.1875 8.1875 C-6 10 -6 10 -8.89815712 11.35820484 C-11.98944543 12.9944135 -13.98596065 14.61572656 -16.44198608 17.08122253 C-17.27311102 17.90821498 -18.10423595 18.73520742 -18.96054649 19.58726025 C-20.3053128 20.94821804 -20.3053128 20.94821804 -21.67724609 22.33666992 C-22.65854021 23.31888391 -23.64049617 24.30043705 -24.62305641 25.28138447 C-27.24408292 27.90173581 -29.85599695 30.53099267 -32.46607971 33.16223907 C-34.91983524 35.63312422 -37.38174978 38.09580093 -39.84301758 40.5592041 C-47.02855099 47.76045737 -54.20098339 54.97477343 -61.375 62.1875 C-85.444375 86.3496875 -85.444375 86.3496875 -110 111 C-33.275 111.495 -33.275 111.495 45 112 C45 112.33 45 112.66 45 113 C-7.14 113 -59.28 113 -113 113 C-111.14969727 109.29939455 -109.71414447 107.4666648 -106.84921265 104.60870361 C-105.97980545 103.73654709 -105.11039825 102.86439056 -104.21464539 101.96580505 C-103.24914637 101.0073837 -102.28355173 100.04905867 -101.31787109 99.09082031 C-100.30238106 98.07589455 -99.28733148 97.06052792 -98.27268982 96.04475403 C-95.5190921 93.29058246 -92.75937117 90.54262121 -89.99851561 87.79572773 C-87.11348903 84.923203 -84.23412458 82.04501414 -81.35415649 79.16741943 C-75.90062122 73.72010053 -70.44200771 68.27789998 -64.98155463 62.83751655 C-58.7648666 56.64318262 -52.55385612 50.44316924 -46.34331775 44.24267054 C-33.56852191 31.48878024 -20.78640777 18.742248 -8 6 C-14.93 5.67 -21.86 5.34 -29 5 C-29 4.67 -29 4.34 -29 4 C-28.32420898 3.98541748 -27.64841797 3.97083496 -26.95214844 3.95581055 C-23.88419478 3.88124589 -20.81731924 3.78461345 -17.75 3.6875 C-16.15478516 3.65366211 -16.15478516 3.65366211 -14.52734375 3.61914062 C-12.99013672 3.5659668 -12.99013672 3.5659668 -11.421875 3.51171875 C-10.47924805 3.48553467 -9.53662109 3.45935059 -8.56542969 3.43237305 C-5.10733911 2.84955249 -3.34484494 0 0 0 Z " fill="#A35A47" transform="translate(244,183)"/>
<path d="M0 0 C3.45248176 1.15082725 3.68652725 1.7475427 5.5625 4.6875 C10.05702624 10.93052023 17.44369864 15.48873973 25 17 C36.19093505 18.04405225 44.4842103 15.49754271 53.24609375 8.5234375 C55.62383367 6.45814002 57.80598765 4.25854212 60 2 C60.66 1.67 61.32 1.34 62 1 C60.39428407 7.95810238 56.21409539 13.57397608 50.5625 17.83984375 C41.51252036 23.48228532 33.50120672 25.03193758 23.0625 23.375 C12.86040398 20.42817944 5.98609743 14.00189483 0.8125 4.9140625 C0 3 0 3 0 0 Z " fill="#5E392F" transform="translate(119,132)"/>
<path d="M0 0 C1.8343925 1.74267287 3.35036497 3.4671533 4.875 5.5 C7.7883973 8.92752623 10.36866542 10.75329954 14.8671875 11.43359375 C21.5048048 11.44221403 25.73892901 11.18738303 31 7 C32.84790376 4.74681187 34.40065826 2.44605207 36 0 C36.33 0 36.66 0 37 0 C36.88421307 6.48406799 35.30117355 9.54161699 30.984375 14.3359375 C26.42895856 18.15603081 21.61037972 18.55790242 15.85546875 18.44140625 C10.27442292 17.57867276 6.0779159 14.56089095 2.5546875 10.21875 C0.42233141 6.81890952 -0.48337173 3.98781674 0 0 Z " fill="#633F35" transform="translate(197,128)"/>
<path d="M0 0 C0.7974855 2.31995782 1.11434828 3.61982909 0.3984375 6 C-2.55733224 11.77616072 -5.91684096 15.43299317 -12 18 C-17.97883299 18.88828376 -23.42895654 19.01201372 -28.5 15.4375 C-32.00853152 12.3391517 -34.16657168 9.30457085 -36 5 C-35.58984375 2.7890625 -35.58984375 2.7890625 -35 1 C-34.54109375 1.55429688 -34.0821875 2.10859375 -33.609375 2.6796875 C-32.99578125 3.40414062 -32.3821875 4.12859375 -31.75 4.875 C-31.14671875 5.59429687 -30.5434375 6.31359375 -29.921875 7.0546875 C-26.32707546 10.69332606 -23.30412825 11.32620443 -18.25 11.4375 C-12.29532982 11.32857311 -8.37661307 10.07151264 -4 6 C-2.39613857 4.05440673 -1.23652935 2.21544841 0 0 Z " fill="#5C372D" transform="translate(102,128)"/>
<path d="M0 0 C0.73476563 0.64453125 1.46953125 1.2890625 2.2265625 1.953125 C7.08225361 5.19025241 12.7346911 4.67692179 18.375 4.75 C20.05142578 4.79447266 20.05142578 4.79447266 21.76171875 4.83984375 C24.5078839 4.91025824 27.25321404 4.96309623 30 5 C29.67 7.31 29.34 9.62 29 12 C25.45877173 12.14601614 21.91832356 12.2343056 18.375 12.3125 C17.37597656 12.35439453 16.37695312 12.39628906 15.34765625 12.43945312 C7.00039734 12.57765278 7.00039734 12.57765278 3.34375 9.71875 C0.51962537 6.44276543 0.1673039 4.26624936 0 0 Z " fill="#613A2F" transform="translate(56,182)"/>
<path d="M0 0 C-1.18571812 3.55715435 -2.02500566 3.8638974 -5.0625 5.875 C-11.18016301 10.42904307 -14.32379621 16.47628104 -18 23 C-18.66 23.99 -19.32 24.98 -20 26 C-19.65958157 15.4470286 -14.44372171 7.33161746 -7 0 C-4.3333581 -1.33332095 -2.83319697 -0.67102033 0 0 Z " fill="#603B31" transform="translate(106,160)"/>
<path d="M0 0 C4.46392016 0.5101623 6.68264999 2.02250083 10 5 C11.94921875 7.62109375 11.94921875 7.62109375 13.6875 10.4375 C14.26886719 11.36433594 14.85023438 12.29117188 15.44921875 13.24609375 C18.1515891 18.04501338 19.25761921 21.46118689 19 27 C17.27635747 24.41453621 15.69637149 21.80365917 14.125 19.125 C9.91687133 12.14517119 5.63183212 7.68413385 -1 3 C-0.67 2.01 -0.34 1.02 0 0 Z " fill="#644138" transform="translate(195,159)"/>
<path d="M0 0 C7.59 0.33 15.18 0.66 23 1 C19 6 19 6 16.89355469 6.56762695 C16.16040039 6.54144287 15.42724609 6.51525879 14.671875 6.48828125 C13.87265625 6.47216797 13.0734375 6.45605469 12.25 6.43945312 C11.425 6.39755859 10.6 6.35566406 9.75 6.3125 C8.90953125 6.28994141 8.0690625 6.26738281 7.203125 6.24414062 C5.13465036 6.18537714 3.06709512 6.09569885 1 6 C0.67 4.02 0.34 2.04 0 0 Z " fill="#5C372E" transform="translate(214,187)"/>
<path d="M0 0 C0.33 0 0.66 0 1 0 C0.88559228 6.40683211 -0.59708637 9.70577443 -5.01171875 14.3671875 C-7.92609769 16.76052816 -10.30638842 17.39696138 -14 18 C-12.68 16.02 -11.36 14.04 -10 12 C-10.66 11.67 -11.32 11.34 -12 11 C-10.948125 10.484375 -9.89625 9.96875 -8.8125 9.4375 C-4.57787286 7.05820646 -2.63023358 4.02271018 0 0 Z " fill="#7A4D41" transform="translate(233,128)"/>
<path d="M0 0 C-0.25971095 3.80909391 -0.58298075 5.55981301 -3.25 8.375 C-6.19132443 10.11305534 -7.6549611 10.38229016 -11 10 C-10.01 8.68 -9.02 7.36 -8 6 C-14.93 5.67 -21.86 5.34 -29 5 C-29 4.67 -29 4.34 -29 4 C-28.32420898 3.98541748 -27.64841797 3.97083496 -26.95214844 3.95581055 C-23.88419478 3.88124589 -20.81731924 3.78461345 -17.75 3.6875 C-16.15478516 3.65366211 -16.15478516 3.65366211 -14.52734375 3.61914062 C-12.99013672 3.5659668 -12.99013672 3.5659668 -11.421875 3.51171875 C-10.47924805 3.48553467 -9.53662109 3.45935059 -8.56542969 3.43237305 C-5.10733911 2.84955249 -3.34484494 0 0 0 Z " fill="#7F584D" transform="translate(244,183)"/>
<path d="M0 0 C0.33 0 0.66 0 1 0 C1 2.97 1 5.94 1 9 C-1.97 9 -4.94 9 -8 9 C-6.8553125 8.1646875 -6.8553125 8.1646875 -5.6875 7.3125 C-3.03568819 5.03070844 -1.68044905 3.02480829 0 0 Z " fill="#000000" transform="translate(299,291)"/>
<path d="M0 0 C0.556875 0.7425 1.11375 1.485 1.6875 2.25 C3.93027178 4.91707995 6.22074975 6.91556232 9 9 C6.03 9 3.06 9 0 9 C0 6.03 0 3.06 0 0 Z " fill="#000000" transform="translate(0,291)"/>
<path d="M0 0 C2.97 0 5.94 0 9 0 C9 2.97 9 5.94 9 9 C8.443125 8.2575 7.88625 7.515 7.3125 6.75 C5.06972822 4.08292005 2.77925025 2.08443768 0 0 Z " fill="#000000" transform="translate(291,0)"/>
<path d="M0 0 C2.97 0 5.94 0 9 0 C8.2575 0.556875 7.515 1.11375 6.75 1.6875 C4.08292005 3.93027178 2.08443768 6.22074975 0 9 C0 6.03 0 3.06 0 0 Z " fill="#000000" transform="translate(0,0)"/>
</svg>
